<mxfile host="app.diagrams.net" modified="2024-05-22T13:21:36.004Z" agent="Mozilla/5.0 (Macintosh; Intel Mac OS X 10_15_7) AppleWebKit/537.36 (KHTML, like Gecko) Chrome/125.0.0.0 Safari/537.36" version="24.4.3" etag="EB5EHpe_dAJS1PSxfbaB" type="github">
  <diagram name="Page-1" id="Hn-9Mw71HZ1-6DG-6Rv2">
    <mxGraphModel>
      <root>
        <mxCell id="0" />
        <mxCell id="1" parent="0" />
      </root>
    </mxGraphModel>
  </diagram>
</mxfile>
